<svg xmlns="http://www.w3.org/2000/svg" xmlns:xlink="http://www.w3.org/1999/xlink" width="107" height="109" viewBox="0 0 107 109" fill="none"><defs><linearGradient id="linear_0" x1="48.7551601%" y1="102.25816800000001%" x2="49.7551601%" y2="2.14461703%" gradientUnits="objectBoundingBox"><stop offset="0" stop-color="#00A5E6" stop-opacity="1" /><stop offset="1" stop-color="#00CCFF" stop-opacity="1" /></linearGradient></defs><g opacity="1" transform="translate(-0.000009602982572687324 -0.0001221250004164176)  rotate(0 53.32344578451704 54.22811228124999)"><path id="矩形" fill-rule="evenodd" style="fill:#00A5E6" transform="translate(0 0)  rotate(0 53.32344578451704 54.22811228124999)" opacity="0" d="M0,108.46L106.65,108.46L106.65,0L0,0L0,108.46Z " /><path id="路径" fill-rule="evenodd" fill="url(#linear_0)" transform="translate(0 0)  rotate(0 49.94629439140624 50.793382393749994)" opacity="1" d="M0,63.36C0,84.47 22.36,101.59 49.95,101.59C77.53,101.59 99.89,84.47 99.89,63.36C99.89,49.5 89.9,36.16 77.5,23.91C62.55,32.08 46.46,41.14 33.06,51.39C43.64,38.67 56.97,26.69 68.91,16.02C62.46,10.32 55.83,4.95 49.95,0C29.47,17.19 0,39.57 0,63.36Z " /></g></svg>